<?xml version="1.0" standalone="no"?>
<!DOCTYPE svg PUBLIC "-//W3C//DTD SVG 20010904//EN"
 "http://www.w3.org/TR/2001/REC-SVG-20010904/DTD/svg10.dtd">
<svg version="1.0" xmlns="http://www.w3.org/2000/svg"
 width="1024.000000pt" height="1024.000000pt" viewBox="0 0 1024.000000 1024.000000"
 preserveAspectRatio="xMidYMid meet">
<metadata>
Created by potrace 1.14, written by Peter Selinger 2001-2017
</metadata>
<g transform="translate(0.000000,1024.000000) scale(0.100000,-0.100000)"
fill="#FFFFFF" stroke="none">
<path d="M18 8722 c-17 -3 -18 -50 -18 -804 0 -665 2 -799 13 -795 8 3 20 1
27 -3 8 -5 22 -4 32 1 10 5 18 6 18 2 0 -4 37 -9 83 -9 110 -2 258 -11 277
-18 8 -3 44 -8 80 -11 87 -8 110 -11 145 -18 17 -4 50 -9 75 -12 25 -3 53 -8
62 -11 22 -7 58 -14 89 -18 95 -14 462 -122 619 -183 161 -61 244 -98 393
-170 70 -35 130 -62 133 -62 4 0 10 -5 15 -13 5 -7 12 -13 16 -13 11 -1 174
-94 183 -105 3 -4 12 -9 20 -13 22 -10 172 -107 215 -140 6 -4 60 -44 120 -89
61 -46 119 -92 130 -103 11 -11 31 -28 45 -38 81 -56 358 -332 495 -491 62
-73 101 -121 109 -135 5 -9 18 -25 29 -36 10 -11 26 -32 35 -47 9 -16 20 -28
24 -28 4 0 8 -7 8 -15 0 -8 4 -15 8 -15 4 0 24 -25 43 -55 18 -30 37 -55 42
-55 4 0 7 -4 7 -9 0 -5 23 -44 50 -85 28 -42 50 -80 50 -86 0 -5 4 -10 9 -10
5 0 11 -8 15 -17 3 -10 24 -49 46 -88 36 -62 161 -312 203 -405 40 -89 142
-361 152 -402 7 -30 37 -132 46 -156 15 -38 12 -41 -61 -41 -39 0 -74 -3 -79
-6 -6 -3 -12 -1 -16 5 -4 6 -10 8 -15 5 -9 -5 -195 -7 -336 -4 -29 1 -57 -1
-63 -5 -6 -4 -11 -2 -11 4 0 6 -4 9 -9 6 -5 -3 -37 -6 -72 -6 -35 0 -84 0
-109 -1 -25 -1 -51 -1 -57 0 -21 2 -36 2 -78 2 -22 0 -47 0 -55 0 -8 0 -58 0
-110 0 -181 -2 -225 -2 -240 -2 -8 1 -28 1 -45 0 -16 -1 -37 -1 -45 0 -8 0
-42 0 -75 0 -33 0 -64 -1 -70 -1 -124 3 -187 2 -194 -3 -5 -3 -12 -1 -16 5 -4
6 -10 8 -15 5 -5 -3 -50 -5 -102 -5 -51 0 -122 -1 -158 -1 -36 0 -71 0 -77 0
-27 2 -39 2 -78 2 -22 0 -47 0 -55 0 -8 0 -58 0 -110 0 -177 -2 -225 -2 -237
-2 -27 2 -39 2 -78 2 -22 0 -47 0 -55 0 -8 0 -78 0 -155 0 -77 -1 -163 0 -191
0 -29 1 -57 -1 -63 -5 -6 -4 -11 -2 -11 4 0 6 -4 9 -9 6 -5 -3 -37 -6 -72 -6
-35 0 -84 0 -109 -1 -25 -1 -51 -1 -57 0 -21 2 -36 2 -78 2 -22 0 -47 0 -55 0
-8 0 -58 0 -110 0 -177 -2 -225 -2 -237 -2 -27 2 -39 2 -78 2 -22 0 -47 0 -55
0 -8 0 -48 0 -87 -1 l-73 -2 0 -793 c0 -546 3 -796 11 -800 5 -4 51 -6 102 -5
51 1 101 1 112 0 37 -3 221 -3 280 1 22 1 49 1 60 1 11 -1 54 -1 95 -1 76 0
90 0 113 -2 6 0 47 0 89 1 42 1 82 -1 87 -5 6 -3 11 -1 11 5 0 6 5 8 11 5 5
-4 51 -6 102 -5 51 1 101 1 112 0 37 -3 221 -3 280 1 22 1 49 1 60 1 11 -1 54
-1 95 -1 76 0 90 0 113 -2 6 0 47 0 89 1 42 1 82 -1 87 -5 6 -3 11 -1 11 5 0
6 5 8 11 5 5 -4 51 -6 102 -5 51 1 101 1 112 0 37 -3 221 -3 280 1 22 1 49 1
60 1 11 -1 54 -1 95 -1 76 0 90 0 113 -2 6 0 47 0 89 1 42 1 82 -1 87 -5 6 -3
11 -1 11 5 0 6 5 8 11 5 5 -4 51 -6 102 -5 51 1 101 1 112 0 37 -3 221 -3 280
1 22 1 49 1 60 1 11 -1 54 -1 95 -1 76 0 90 0 113 -2 6 0 47 0 89 1 42 1 82
-1 87 -5 6 -3 11 -1 11 5 0 6 5 8 11 5 5 -4 51 -6 102 -5 51 1 99 1 107 1 8 0
51 0 95 0 44 1 85 1 90 0 6 0 23 -2 40 -3 26 -3 30 -8 35 -38 3 -19 3 -46 0
-60 -3 -14 -3 -42 1 -62 3 -21 3 -38 0 -38 -7 0 -5 -69 2 -76 3 -3 2 -18 -2
-32 -4 -15 -5 -39 -1 -53 4 -15 4 -32 0 -39 -4 -7 -4 -27 0 -46 4 -19 4 -34 0
-34 -4 0 -4 -18 0 -40 4 -22 4 -43 0 -45 -4 -3 -4 -20 0 -39 4 -19 4 -40 0
-46 -4 -7 -4 -25 0 -41 5 -15 5 -44 0 -63 -4 -20 -4 -38 0 -41 4 -3 5 -20 1
-37 -9 -41 -9 -45 -1 -84 4 -18 4 -38 0 -44 -4 -7 -4 -24 0 -39 4 -14 4 -35 0
-46 -4 -11 -4 -32 1 -47 4 -15 4 -30 -1 -33 -4 -3 -4 -21 0 -40 4 -19 4 -51 0
-70 -4 -19 -4 -37 0 -40 4 -3 5 -20 1 -37 -7 -33 -5 -92 4 -115 3 -10 172 -13
798 -13 437 0 796 3 799 6 4 3 3 18 -1 32 -5 15 -5 36 -1 47 4 11 4 32 -1 47
-4 15 -4 30 1 33 4 3 4 21 0 40 -4 19 -4 51 0 70 4 19 4 37 0 40 -4 3 -5 20
-1 37 9 41 9 45 1 84 -4 18 -4 37 0 44 4 7 4 27 0 46 -4 19 -4 36 0 39 4 3 4
21 0 40 -4 19 -4 37 0 40 4 3 4 21 0 40 -4 19 -4 35 0 35 4 0 4 15 0 34 -4 19
-4 39 0 46 4 7 4 27 0 46 -4 19 -4 36 0 39 4 3 4 21 0 40 -4 19 -4 37 0 40 4
3 4 21 0 40 -4 19 -4 37 0 40 4 3 4 21 0 40 -4 19 -4 35 0 35 4 0 4 18 0 40
-4 22 -4 43 0 45 4 3 4 20 0 39 -4 19 -4 40 0 46 4 7 4 25 0 41 -5 15 -5 43
-1 61 11 46 11 47 11 52 0 2 15 0 34 -4 19 -4 53 -4 75 0 23 4 41 4 41 0 0 -4
18 -4 41 0 22 4 55 4 74 0 18 -4 38 -4 45 0 7 4 27 4 45 0 19 -4 52 -4 74 0
23 4 41 4 41 0 0 -4 18 -4 41 0 22 4 55 4 74 0 18 -4 38 -4 45 0 7 4 27 4 45
0 19 -4 52 -4 74 0 23 4 41 4 41 0 0 -4 18 -4 41 0 22 4 55 4 74 0 18 -4 38
-4 45 0 7 4 27 4 45 0 19 -4 52 -4 74 0 23 4 41 4 41 0 0 -4 18 -4 41 0 22 4
55 4 74 0 18 -4 38 -4 45 0 7 4 27 4 45 0 19 -4 52 -4 74 0 23 4 41 4 41 0 0
-4 18 -4 41 0 22 4 55 4 74 0 18 -4 38 -4 45 0 7 4 27 4 45 0 19 -4 53 -4 77
0 23 5 46 6 51 3 4 -3 49 -4 100 -3 51 1 101 1 112 0 37 -3 221 -3 280 1 22 1
49 1 60 1 11 -1 54 -1 95 -1 76 0 90 0 113 -2 6 0 47 0 89 1 42 1 82 -1 87 -5
6 -3 11 -1 11 5 0 6 5 8 11 5 5 -4 51 -6 102 -5 51 1 101 1 112 0 37 -3 221
-3 280 1 22 1 49 1 60 1 11 -1 54 -1 95 -1 76 0 90 0 113 -2 6 0 47 0 89 1 42
1 82 -1 87 -5 6 -3 11 -2 11 3 0 5 16 6 36 3 20 -3 70 -4 111 -1 40 3 80 3 88
0 8 -3 50 -3 94 0 43 3 95 2 116 -1 20 -3 54 -3 76 1 22 4 56 4 74 0 19 -4 36
-5 39 -2 10 10 7 1614 -3 1608 -5 -4 -51 -6 -103 -6 -51 0 -122 -1 -158 -1
-36 0 -71 0 -77 0 -27 2 -39 2 -78 2 -22 0 -47 0 -55 0 -8 0 -58 0 -110 0
-177 -2 -225 -2 -237 -2 -27 2 -39 2 -78 2 -22 0 -47 0 -55 0 -8 0 -64 0 -125
0 -60 0 -117 0 -125 0 -8 1 -46 1 -85 0 -38 0 -77 0 -85 0 -8 0 -55 1 -105 0
-49 0 -97 0 -105 0 -8 0 -33 0 -55 0 -22 0 -47 0 -55 0 -8 0 -80 0 -160 0 -80
0 -152 0 -160 0 -8 1 -55 1 -105 0 -49 0 -97 0 -105 0 -8 0 -33 0 -55 0 -22 0
-49 0 -60 0 -91 1 -318 0 -350 -1 -22 -1 -46 -2 -52 -1 -21 2 -36 2 -78 2 -22
0 -47 0 -55 0 -8 0 -58 0 -110 0 -177 -2 -225 -2 -237 -2 -27 2 -39 2 -78 2
-22 0 -47 0 -55 0 -8 0 -58 0 -110 0 -177 -2 -225 -2 -237 -2 -27 2 -39 2 -78
2 -22 0 -47 0 -55 0 -8 0 -58 0 -110 0 -224 -3 -221 -3 -216 22 2 12 9 33 14
47 5 14 10 28 11 33 0 4 1 8 2 10 0 1 2 9 4 17 6 29 66 205 91 270 37 93 85
211 94 229 12 23 76 165 79 173 2 9 77 145 91 168 6 8 16 26 22 40 53 105 319
500 383 566 5 6 24 28 40 48 45 57 59 74 137 159 72 79 247 257 252 257 2 0
24 19 49 43 76 70 130 117 133 117 2 0 12 8 23 18 10 9 33 28 51 42 18 14 47
37 65 53 18 15 35 27 39 27 5 0 28 17 60 45 20 18 208 141 306 200 139 85 417
224 560 282 153 62 162 65 175 69 6 2 57 19 115 39 58 20 112 38 120 40 8 2
58 16 110 31 52 14 102 27 110 29 8 2 33 8 55 14 22 5 54 13 70 15 17 3 41 8
55 11 14 3 36 8 50 10 14 2 39 7 55 11 17 3 46 7 65 9 19 2 36 4 38 6 1 1 10
2 20 3 34 4 137 18 163 22 43 6 169 15 269 19 52 2 100 4 105 5 6 1 12 1 15 0
3 -1 20 -2 37 -3 l33 -2 0 802 c0 759 -1 802 -17 802 -10 0 -29 2 -43 4 -14 2
-29 1 -34 -2 -6 -2 -60 -6 -120 -7 -130 -4 -237 -10 -321 -19 -171 -18 -235
-25 -265 -30 -14 -2 -47 -7 -75 -11 -27 -3 -59 -8 -70 -10 -10 -2 -35 -6 -55
-9 -20 -3 -47 -8 -60 -11 -14 -3 -45 -9 -70 -14 -25 -4 -56 -11 -70 -14 -14
-3 -41 -9 -60 -13 -41 -8 -31 -6 -102 -22 -32 -7 -60 -12 -63 -12 -2 0 -23 -6
-45 -14 -22 -8 -42 -14 -45 -15 -3 0 -6 0 -7 -1 -2 0 -11 -2 -21 -4 -10 -2
-41 -11 -70 -20 -28 -9 -61 -18 -72 -20 -11 -2 -20 -4 -20 -5 0 -1 -7 -3 -15
-5 -8 -2 -58 -18 -110 -35 -52 -18 -99 -33 -105 -35 -5 -1 -19 -6 -30 -10 -77
-31 -115 -44 -115 -38 0 3 -9 -2 -20 -12 -11 -10 -20 -15 -20 -12 0 6 -167
-61 -295 -118 -116 -52 -390 -188 -393 -197 -2 -4 -12 -8 -23 -8 -10 0 -19 -3
-19 -8 0 -4 -30 -23 -67 -42 -38 -19 -73 -40 -80 -46 -6 -6 -25 -17 -42 -24
-17 -7 -31 -16 -31 -21 0 -5 -5 -9 -11 -9 -6 0 -45 -22 -86 -50 -41 -27 -77
-50 -79 -50 -7 0 -68 -44 -76 -55 -4 -5 -8 -7 -8 -3 0 4 -8 1 -17 -7 -10 -7
-74 -55 -143 -104 -68 -50 -137 -102 -153 -116 -16 -14 -33 -25 -37 -25 -5 0
-10 -3 -12 -8 -1 -4 -25 -25 -53 -47 -27 -22 -59 -49 -71 -60 -11 -11 -32 -29
-46 -40 -104 -82 -444 -414 -538 -524 -25 -30 -58 -68 -75 -86 -16 -18 -37
-41 -45 -51 -37 -46 -105 -129 -110 -134 -7 -6 -105 -135 -163 -214 -20 -28
-40 -58 -44 -66 -4 -8 -9 -17 -13 -20 -9 -7 -140 -200 -140 -206 0 -3 -18 -32
-40 -64 -22 -32 -40 -64 -40 -69 0 -6 -3 -11 -8 -11 -4 0 -13 -13 -20 -30 -17
-38 -31 -38 -45 0 -6 17 -15 30 -19 30 -4 0 -8 4 -8 10 0 20 -273 431 -291
438 -5 2 -9 8 -9 14 0 9 -55 82 -87 116 -7 7 -13 16 -13 20 0 4 -13 21 -28 37
-15 17 -34 39 -42 51 -22 31 -102 125 -127 150 -13 12 -23 24 -23 27 0 23
-418 439 -565 562 -33 28 -62 53 -65 56 -41 50 -553 429 -580 429 -5 0 -10 4
-10 9 0 5 -9 13 -20 16 -11 3 -26 12 -32 19 -7 6 -39 28 -72 46 -32 19 -79 48
-105 63 -25 15 -57 33 -71 40 -14 6 -31 17 -38 24 -8 7 -17 11 -22 8 -5 -3
-10 -1 -12 4 -3 10 -398 213 -398 206 0 -3 -17 4 -38 14 -71 36 -343 149 -372
155 -8 2 -28 8 -45 15 -16 7 -57 21 -90 32 -33 11 -67 23 -75 26 -18 8 -17 7
-60 17 -19 5 -41 13 -47 18 -7 6 -13 7 -13 3 0 -4 -6 -2 -13 4 -8 6 -17 8 -20
5 -3 -3 -12 -2 -19 2 -7 5 -15 9 -18 10 -14 2 -97 26 -110 31 -8 4 -22 7 -30
9 -8 1 -35 7 -60 14 -47 13 -68 18 -110 26 -14 3 -41 9 -60 14 -42 11 -104 23
-170 35 -14 2 -38 6 -55 9 -44 9 -97 18 -120 22 -11 2 -36 6 -55 9 -19 3 -53
8 -75 10 -22 3 -62 7 -90 11 -259 31 -642 53 -666 38 -4 -2 -9 -1 -11 4 -1 4
-11 6 -20 4z"/>
</g>
</svg>
